<svg width="256" height="256" fill="none" xmlns="http://www.w3.org/2000/svg"><g filter="url(#filter0_f_3_58)"><path fill-rule="evenodd" clip-rule="evenodd" d="M129.488 203.411c22.755 0 55.245-.034 68.985-16.047 11.243-13.103 5.93-40.248 5.93-58.868 0-21.786 8.916-53.99-5.93-67.678-13.349-12.308-49.396-7.237-68.985-7.237-22.268-.001-54.754-8.187-68.476 7.237-11.774 13.234-6.438 48.572-6.438 67.678 0 14.995-10.96 47.155-3.372 58.868 13.347 20.606 51.907 16.047 78.286 16.047z" fill="url(#paint0_linear_3_58)"/></g><defs><linearGradient id="paint0_linear_3_58" x1="61.379" y1="6.945" x2="-197.561" y2="222.986" gradientUnits="userSpaceOnUse"><stop stop-color="#3A0CA3"/><stop offset=".135" stop-color="#7209B7"/><stop offset=".318" stop-color="#B5179E"/></linearGradient><filter id="filter0_f_3_58" x="8.836" y="11.72" width="237.912" height="231.81" filterUnits="userSpaceOnUse" color-interpolation-filters="sRGB"><feFlood flood-opacity="0" result="BackgroundImageFix"/><feBlend in="SourceGraphic" in2="BackgroundImageFix" result="shape"/><feGaussianBlur stdDeviation="19.845" result="effect1_foregroundBlur_3_58"/></filter></defs></svg>