<svg width="658" height="356" fill="none" xmlns="http://www.w3.org/2000/svg"><g filter="url(#filter0_f_369_2)"><path d="M329 243.25c119.421 0 216.231-29.21 216.231-65.242 0-36.032-96.81-65.242-216.231-65.242-119.421 0-216.231 29.21-216.231 65.242 0 36.032 96.81 65.242 216.231 65.242z" fill="url(#paint0_linear_369_2)"/></g><g filter="url(#filter1_f_369_2)"><path fill-rule="evenodd" clip-rule="evenodd" d="M367.547 219.017c-40.4-2.364-69.89-7.213-88.47-14.548-15.691-6.194-55.712-16.376-59.746-50.694-3.124-26.563 18.034-43.66 32.063-52.072 21.403-12.833 48.504-16.288 81.304-10.364l93.233 83.534c-7.711 11.899-14.836 20.32-21.373 25.263-6.537 4.943-18.874 11.236-37.011 18.881z" fill="url(#paint1_linear_369_2)"/></g><defs><linearGradient id="paint0_linear_369_2" x1="545.231" y1="172.068" x2="145.569" y2="292.656" gradientUnits="userSpaceOnUse"><stop stop-color="#3A0CA3"/><stop offset=".336" stop-color="#7209B7"/><stop offset=".795" stop-color="#B5179E"/></linearGradient><linearGradient id="paint1_linear_369_2" x1="322.476" y1="88.533" x2="322.476" y2="219.017" gradientUnits="userSpaceOnUse"><stop stop-opacity="0"/><stop offset="1" stop-opacity=".989"/></linearGradient><filter id="filter0_f_369_2" x=".925" y=".922" width="656.15" height="354.172" filterUnits="userSpaceOnUse" color-interpolation-filters="sRGB"><feFlood flood-opacity="0" result="BackgroundImageFix"/><feBlend in="SourceGraphic" in2="BackgroundImageFix" result="shape"/><feGaussianBlur stdDeviation="55.922" result="effect1_foregroundBlur_369_2"/></filter><filter id="filter1_f_369_2" x="159.37" y="28.883" width="326.211" height="249.784" filterUnits="userSpaceOnUse" color-interpolation-filters="sRGB"><feFlood flood-opacity="0" result="BackgroundImageFix"/><feBlend in="SourceGraphic" in2="BackgroundImageFix" result="shape"/><feGaussianBlur stdDeviation="29.825" result="effect1_foregroundBlur_369_2"/></filter></defs></svg>