<svg width="22" height="22" fill="none" xmlns="http://www.w3.org/2000/svg"><g clip-path="url(#clip0_314_2)"><path d="M21.598 10.021L11.972.39c-.52-.521-1.428-.52-1.945-.001L.402 10.02a1.37 1.37 0 00-.402.972c0 .368.143.713.403.973l9.624 9.63c.26.26.605.404.973.404s.713-.143.972-.403l9.625-9.63c.26-.26.403-.606.403-.974a1.37 1.37 0 00-.402-.972z" fill="#EF473B"/><path opacity=".1" d="M21.708 11.632l-9.726 9.732c-.261.262-.61.407-.982.407a1.38 1.38 0 01-.983-.408l-9.725-9.73a1.387 1.387 0 01-.267-.388c.05.272.179.522.378.721l9.624 9.63c.26.26.605.404.973.404s.713-.143.972-.403l9.625-9.63c.2-.2.328-.45.378-.722a1.387 1.387 0 01-.267.387z" fill="#010101"/><path d="M15.583 9.167c-.343 0-.662.1-.937.266l-2.079-2.08a1.81 1.81 0 00.266-.936A1.835 1.835 0 0011 4.583c-.34 0-.653.1-.926.26l-2.249-2.25-.648.649 2.25 2.25a1.8 1.8 0 00-.26.925 1.83 1.83 0 001.375 1.768v5.63a1.832 1.832 0 00-1.375 1.768c0 1.011.822 1.834 1.833 1.834 1.01 0 1.833-.823 1.833-1.834 0-.851-.586-1.563-1.375-1.768v-5.63c.162-.042.314-.106.456-.188l2.09 2.09c-.157.27-.254.579-.254.913 0 1.011.823 1.833 1.833 1.833A1.836 1.836 0 0017.417 11a1.835 1.835 0 00-1.834-1.833z" fill="#fff"/><path opacity=".2" d="M.402 10.25L10.028.62c.517-.52 1.426-.52 1.945 0l9.624 9.63.001.001c.231.233.364.535.39.858.004-.038.012-.076.012-.115a1.37 1.37 0 00-.402-.972L11.972.39c-.52-.521-1.428-.52-1.945-.001L.402 10.02a1.37 1.37 0 00-.402.972c0 .04.008.077.011.115.027-.323.16-.625.39-.858z" fill="#fff"/><path d="M17.003 9.854c.255.315.414.71.414 1.146a1.835 1.835 0 01-1.834 1.833A1.835 1.835 0 0113.75 11c0-.334.097-.644.254-.914l-2.09-2.09a1.812 1.812 0 01-.456.189v5.63a1.832 1.832 0 011.375 1.768A1.835 1.835 0 0111 17.417a1.82 1.82 0 01-1.217-.473l3.42 3.42 7.153-7.156-3.353-3.354zm-4.436-2.5l2.08 2.079a1.81 1.81 0 01.936-.266c.436 0 .831.159 1.146.413l-4.288-4.288-.002.002c.243.311.394.698.394 1.123 0 .343-.1.662-.266.937z" fill="url(#paint0_linear_314_2)"/><path d="M21.598 10.021L11.972.39c-.52-.521-1.428-.52-1.945-.001L.402 10.02a1.37 1.37 0 00-.402.972c0 .368.143.713.403.973l9.624 9.63c.26.26.605.404.973.404s.713-.143.972-.403l9.625-9.63c.26-.26.403-.606.403-.974a1.37 1.37 0 00-.402-.972z" fill="url(#paint1_linear_314_2)"/></g><defs><linearGradient id="paint0_linear_314_2" x1="8.863" y1="8.87" x2="16.781" y2="16.787" gradientUnits="userSpaceOnUse"><stop stop-color="#010101" stop-opacity=".1"/><stop offset="1" stop-color="#010101" stop-opacity="0"/></linearGradient><linearGradient id="paint1_linear_314_2" x1="1.846" y1="6.728" x2="20.151" y2="15.264" gradientUnits="userSpaceOnUse"><stop stop-color="#fff" stop-opacity=".2"/><stop offset="1" stop-color="#fff" stop-opacity="0"/></linearGradient><clipPath id="clip0_314_2"><path fill="#fff" d="M0 0h22v22H0z"/></clipPath></defs></svg>