<svg width="71" height="22" fill="none" xmlns="http://www.w3.org/2000/svg"><path d="M65.829 9.101c-.058.016-.13.16-.13.257-.015.56-.03 2.035-.03 3.044 0 .032.044.08.073.08.188.016.639.032 1.03.032.538 0 .858-.08 1.032-.16.45-.256.668-.801.668-1.394 0-1.346-.857-1.875-2.135-1.875-.073-.032-.32-.032-.508.016zm3.253 6.233c0-1.378-.915-2.147-2.585-2.147-.073 0-.61-.016-.726.016-.044.016-.087.048-.087.08 0 .994-.015 2.564.029 3.173.029.272.203.64.42.753.233.144.742.16 1.105.16.973 0 1.844-.609 1.844-2.035zm-5.838-7.002c.13 0 .508.048 1.481.048.915 0 1.656-.032 2.556-.032 1.104 0 2.614.433 2.614 2.243 0 .898-.566 1.603-1.307 1.955-.043.016-.043.048 0 .048 1.06.289 1.99 1.01 1.99 2.388 0 1.33-.755 2.195-1.859 2.724-.668.32-1.496.432-2.353.432-.639 0-2.367-.08-3.34-.048-.102-.048.087-.544.174-.625a2.25 2.25 0 00.64-.112c.333-.096.377-.208.435-.785.029-.48.029-2.211.029-3.445 0-1.682.014-2.836 0-3.38-.015-.433-.145-.578-.436-.658-.218-.048-.566-.096-.857-.144-.058-.08.16-.56.233-.609zm-7.277 8.669c.305.272.9.368 1.424.368.682 0 1.365-.144 2.018-.8.668-.674 1.133-1.7 1.133-3.35 0-1.57-.537-2.852-1.656-3.605-.624-.433-1.437-.609-2.367-.609-.276 0-.537.016-.712.096-.043.032-.13.16-.13.225-.03.272-.03 2.42-.03 3.685 0 1.298 0 3.108.03 3.317.014.208.101.529.29.673zm-2.875-8.669c.246 0 1.161.048 1.597.048.799 0 1.365-.048 2.861-.048 1.264 0 2.324.369 3.08 1.09.914.881 1.408 2.083 1.408 3.573 0 2.099-.871 3.317-1.743 4.006-.871.705-2.004 1.121-3.63 1.121-.858 0-2.339-.032-3.559-.048h-.014c-.059-.128.101-.609.203-.625.334-.048.421-.048.58-.128.262-.112.32-.272.35-.785.043-.961.028-2.115.028-3.429 0-.93.015-2.756-.014-3.349-.044-.48-.232-.609-.61-.689a6.92 6.92 0 00-.799-.144c-.029-.08.203-.513.262-.593z" fill="#8E714E"/><path d="M37.813 17.546c-.32-.049-.538-.097-.828-.24a.391.391 0 01-.102-.225c-.029-.48-.029-1.875-.029-2.82 0-.753-.116-1.41-.407-1.875-.334-.529-.827-.833-1.467-.833-.551 0-1.307.416-1.917 1.01-.014.015-.116.111-.101-.049 0-.16.029-.464.043-.673.015-.192-.087-.288-.087-.288-.407.224-1.54.512-1.96.56-.305.065-.378.385-.059.497h.015c.334.112.566.24.74.369.131.112.117.272.117.384.014 1.042.014 2.644-.03 3.526-.014.352-.1.48-.333.528l.029-.016c-.175.048-.32.08-.538.112-.072.08-.072.53 0 .625.146 0 .872-.048 1.482-.048.828 0 1.263.048 1.481.048.087-.112.116-.529.058-.625a2.507 2.507 0 01-.58-.096c-.233-.048-.291-.176-.306-.48-.029-.738-.029-2.292-.029-3.365 0-.289.073-.433.145-.513.291-.272.756-.48 1.177-.48.407 0 .668.143.871.32.276.256.364.609.407.881.058.593.044 1.779.044 2.82 0 .56-.044.69-.233.77-.087.047-.32.095-.58.127-.088.096-.059.53 0 .625.362 0 .798-.048 1.423-.048.784 0 1.292.048 1.495.048.088-.064.117-.464.059-.576zm3.5-5.32c-.668 0-1.09.577-1.09 1.458 0 .913.364 1.955 1.41 1.955.174 0 .508-.08.653-.273.247-.256.407-.753.407-1.282 0-1.17-.523-1.858-1.38-1.858zm-.087 6.153a.888.888 0 00-.538.16c-.537.368-.77.737-.77 1.17 0 .4.146.72.436 1.01.363.352.872.512 1.51.512 1.293 0 1.86-.77 1.86-1.522 0-.53-.247-.882-.726-1.074-.363-.176-1.002-.256-1.772-.256zm.087 3.62c-.77 0-1.322-.175-1.801-.592a1.904 1.904 0 01-.668-1.378c0-.112.029-.416.247-.689.145-.16.435-.48 1.162-1.025.029-.017.043-.033.043-.049 0-.031-.029-.048-.043-.064-.596-.256-.77-.657-.828-.88v-.049c-.015-.08-.044-.16.072-.256l.349-.257c.218-.144.436-.288.58-.416.03-.032.03-.048.03-.08s-.03-.049-.044-.064c-.886-.321-1.321-1.042-1.321-2.132 0-.705.29-1.346.813-1.762.349-.305 1.235-.69 1.815-.69h.044c.596.017.915.161 1.394.337.247.097.494.145.828.145.494 0 .712-.16.886-.369.015.032.044.096.044.272.014.177-.044.449-.16.641-.102.16-.334.273-.552.273h-.058a20.841 20.841 0 01-.334-.048l-.044.032c-.014.032 0 .048.015.096l.014.032c.03.128.073.497.073.593 0 1.137-.421 1.65-.857 2.019-.436.352-.915.576-1.481.625-.015 0-.058 0-.175.016-.058 0-.145.016-.16.016h-.014c-.102.032-.348.16-.348.4 0 .208.116.465.653.497.116.016.232.016.349.032.726.048 1.612.128 2.033.272.581.24.944.802.944 1.49 0 1.026-.668 1.987-1.786 2.596-.581.273-1.119.417-1.714.417zm7.204-9.71c-.262 0-.509.065-.683.21-.494.336-.74 1.009-.74 1.97 0 1.827.827 3.109 2.018 3.109.349 0 .625-.113.871-.337.364-.337.552-1.01.552-1.939 0-1.794-.827-3.012-2.018-3.012zm.217 5.961c-2.149 0-2.919-1.746-2.919-3.364 0-1.138.421-2.02 1.25-2.644.595-.4 1.306-.625 1.93-.625 1.642 0 2.79 1.298 2.79 3.156 0 1.266-.45 2.276-1.322 2.885-.407.304-1.133.592-1.729.592zm-22.497-5.96c-.261 0-.508.064-.682.208-.494.337-.741 1.01-.741 1.971 0 1.827.828 3.109 2.019 3.109.348 0 .624-.113.871-.337.363-.337.552-1.01.552-1.939 0-1.794-.813-3.012-2.019-3.012zm.233 5.96c-2.15 0-2.92-1.746-2.92-3.364 0-1.138.422-2.02 1.25-2.644.595-.4 1.307-.625 1.931-.625 1.641 0 2.789 1.298 2.789 3.156 0 1.266-.45 2.276-1.322 2.885-.407.304-1.133.592-1.728.592zm-14.437-.144c-.029-.048-.043-.16-.043-.32 0-.112.029-.177.043-.209.261-.048.407-.08.552-.128.247-.064.349-.224.363-.577.044-.833.044-2.419.03-3.525v-.032c0-.128 0-.272-.146-.384a2.503 2.503 0 00-.755-.369c-.117-.048-.19-.112-.175-.192 0-.08.073-.176.247-.208.421-.049 1.496-.337 1.932-.545.029.032.058.112.058.224l-.014.16c-.015.16-.03.337-.03.513 0 .048.044.096.102.096.03 0 .044-.016.073-.032.813-.689 1.54-.945 1.917-.945.624 0 1.104.32 1.467.993.029.048.043.048.087.048a.08.08 0 00.073-.048c.74-.625 1.495-1.01 1.99-1.01 1.176 0 1.873.962 1.873 2.597 0 .464 0 1.057-.015 1.602 0 .48-.014.93-.014 1.25 0 .064.087.288.232.336.174.096.421.145.726.192h.015c.029.097-.03.465-.073.53-.072 0-.189 0-.32-.017a14.83 14.83 0 00-.958-.032c-.784 0-1.19.016-1.583.048-.029-.112-.044-.448 0-.529.232-.047.334-.08.48-.128.246-.08.319-.208.333-.576 0-.273.044-2.516-.029-3.061-.072-.56-.45-1.218-1.292-1.218-.32 0-.814.145-1.293.545-.029.032-.043.096-.043.144v.016c.043.289.043.625.043 1.138v.913c0 .625-.014 1.218 0 1.65 0 .305.16.37.305.433.073.016.13.032.189.048.116.032.232.049.407.096.029.049.029.24-.015.385-.014.08-.043.128-.043.144-.436-.016-.872-.032-1.51-.032-.19 0-.524.016-.8.016-.232 0-.436.016-.566.016a.731.731 0 01-.044-.272c0-.128.03-.224.044-.257.058-.015.116-.032.174-.032.145-.032.276-.048.407-.08.218-.064.29-.192.305-.496.043-.69.072-2.692-.015-3.189-.145-.801-.566-1.218-1.234-1.218-.392 0-.886.209-1.293.545-.058.048-.116.192-.116.32v.818c0 1.01 0 2.259.014 2.804.015.16.059.368.349.432.058.016.16.049.29.049l.233.047c.029.08.014.417-.044.53-.13 0-.276-.017-.45-.017a16.26 16.26 0 00-2.004 0h-.436z" fill="#442D22"/><path d="M5.381 21.455l-.522-.192s.058-2.916-.886-3.125c-.625-.8.101-34.273 2.367-.112 0 0-.784.433-.915 1.17-.145.721-.044 2.26-.044 2.26z" fill="#fff"/><path d="M5.381 21.455l-.522-.192s.058-2.916-.886-3.125c-.625-.8.101-34.273 2.367-.112 0 0-.784.433-.915 1.17-.145.721-.044 2.26-.044 2.26z" fill="#A6A385"/><path d="M5.657 18.635S10.19 15.35 9.128 8.508C8.112 3.541 5.686 1.907 5.425 1.282 5.135.833 4.858.048 4.858.048l.19 13.828c.014.032-.378 4.246.61 4.76z" fill="#fff"/><path d="M5.657 18.635S10.19 15.35 9.128 8.508C8.112 3.541 5.686 1.907 5.425 1.282 5.135.833 4.858.048 4.858.048l.19 13.828c.014.032-.378 4.246.61 4.76z" fill="#499D4A"/><path d="M4.597 18.827S.342 15.623.588 9.983c.247-5.64 3.24-8.413 3.82-8.925.392-.45.407-.61.436-1.058.261.625.218 9.374.247 10.415.116 3.958-.204 7.66-.494 8.412z" fill="#fff"/><path d="M4.597 18.827S.342 15.623.588 9.983c.247-5.64 3.24-8.413 3.82-8.925.392-.45.407-.61.436-1.058.261.625.218 9.374.247 10.415.116 3.958-.204 7.66-.494 8.412z" fill="#58AA50"/></svg>