<svg width="22" height="22" fill="none" xmlns="http://www.w3.org/2000/svg"><g clip-path="url(#clip0_341_3)"><path d="M21.072 13.526c-2.72.54-2.907-.347-2.907-.347 2.872-4.109 4.07-9.326 3.035-10.603C18.375-.906 13.484.741 13.403.784l-.028.004a10.046 10.046 0 00-1.813-.183c-1.231-.02-2.165.312-2.872.83 0 0-8.725-3.469-8.319 4.36.087 1.665 2.474 12.601 5.323 9.298a51.25 51.25 0 012.048-2.23 2.708 2.708 0 001.724.425l.048-.04a1.86 1.86 0 00.019.472c-.733.79-.518.929-1.986 1.22-1.485.296-.613.82-.043.958.69.167 2.287.403 3.367-1.054l-.043.166c.288.222.49 1.445.457 2.554-.034 1.108-.056 1.869.17 2.463.227.594.454 1.932 2.382 1.533 1.611-.333 2.446-1.196 2.563-2.636.082-1.024.27-.872.28-1.787l.15-.433c.174-1.387.029-1.835 1.022-1.627l.241.02c.731.032 1.687-.113 2.248-.366 1.204-.539 1.923-1.443.731-1.205z" fill="#336791"/><path d="M10.652 14.312a.33.33 0 01.345-.315.33.33 0 01.327.333 51.2 51.2 0 00.018 3.731c.047.962.127 1.685.238 1.954.119.284.303.705.655.99.344.279.873.449 1.715.275.737-.152 1.233-.369 1.563-.7.327-.327.512-.791.627-1.44a50.19 50.19 0 00.308-2.119c.134-1.028.257-2.066.283-2.4a.33.33 0 01.36-.3.326.326 0 01.31.348 71.77 71.77 0 01-.288 2.434c-.111.849-.23 1.69-.312 2.147-.139.775-.375 1.346-.807 1.78-.43.431-1.034.703-1.908.884-1.086.224-1.803-.021-2.287-.415-.477-.387-.703-.9-.846-1.245-.141-.338-.236-1.137-.286-2.166a53.638 53.638 0 01-.015-3.776zM8.8 1.076a.32.32 0 01.187.42.34.34 0 01-.436.182C8.53 1.668.307-1.572.687 5.748c.046.903.789 4.602 1.917 7.182.357.813.748 1.508 1.164 1.952.347.372.702.55 1.043.433.19-.066.392-.215.605-.462a45.265 45.265 0 012-2.172.343.343 0 01.473-.01.314.314 0 01.01.456c-.001.002-.93.934-1.967 2.14-.295.343-.596.556-.898.66-.642.22-1.233-.037-1.767-.61-.468-.5-.898-1.257-1.28-2.136C.826 10.533.062 6.716.014 5.778-.417-2.558 8.774 1.065 8.8 1.076zm4.768-.05l-.5-.526a8.783 8.783 0 011.277-.328c1.677-.313 4.947-.484 7.102 2.173.609.75.559 2.607-.07 4.806a21.415 21.415 0 01-2.95 6.177.345.345 0 01-.468.087.318.318 0 01-.09-.451 20.784 20.784 0 002.86-5.987c.575-2.009.666-3.647.189-4.234C18.984.36 16 .52 14.47.809a9.06 9.06 0 00-.735.17l-.167.047z" fill="#fff"/><path d="M18.466 13.046l.008.027c0 .002.115.58 2.51.104.34-.068.582-.054.738.02.202.093.29.249.276.45a.737.737 0 01-.165.382c-.226.3-.744.686-1.373.967-.472.211-1.19.353-1.85.389a4.5 4.5 0 01-1.053-.05c-.372-.072-.654-.22-.77-.462a.533.533 0 01-.054-.21c-.075-1.257.56-1.477 1.004-1.599a4.212 4.212 0 00-.18-.225c-.225-.27-.513-.618-.741-1.15a7.263 7.263 0 00-.275-.496c-.58-1.004-1.724-2.984-1.5-4.336.16-.965.923-1.606 2.83-1.414l-.02-.054a6.203 6.203 0 00-.445-.94C16.575 2.99 14.761.951 11.541.901 6.628.824 6.79 6.8 6.79 6.816a.33.33 0 01-.33.33.33.33 0 01-.342-.32c0-.019-.182-6.661 5.432-6.574 3.545.056 5.535 2.287 6.445 3.884.226.397.387.759.49 1.04.115.315.157.562.139.671-.026.161-.119.262-.279.292l-.12.002c-1.749-.27-2.41.143-2.52.816-.188 1.134.88 2.981 1.423 3.921.146.255.258.448.308.566.193.45.445.754.642.994.184.216.329.392.388.608zm2.654.765c-1.776.354-2.604.095-2.984-.184-.052.016-.108.03-.167.046-.238.065-.607.165-.568.935.027.028.131.059.284.09.243.046.555.056.887.038.58-.032 1.206-.152 1.605-.33.41-.185.754-.407.965-.6l-.022.005zm-11.357.095c-.137.148-.25.286-.347.404-.412.505-.54.663-1.82.917-.23.047-.385.091-.482.136.12.082.297.15.453.188.316.077.84.168 1.4.077.545-.09 1.134-.36 1.61-1.004a.517.517 0 00.04-.068.542.542 0 00-.011-.389.735.735 0 00-.256-.345.387.387 0 00-.08-.043l-.017-.008a.513.513 0 00-.21-.05c-.07.008-.16.054-.28.185zm-.876.002a8.76 8.76 0 01.399-.46c.247-.258.483-.355.7-.373a1.088 1.088 0 01.542.106 1.1 1.1 0 01.211.114c.221.152.403.394.501.657.1.274.117.58-.002.853a.992.992 0 01-.113.195c-.601.813-1.35 1.153-2.045 1.267-.681.113-1.301.004-1.676-.086-.273-.066-.61-.213-.81-.392a.643.643 0 01-.218-.37c-.026-.167.026-.328.183-.471.153-.138.435-.263.9-.357 1.038-.205 1.13-.318 1.428-.683z" fill="#fff"/><path d="M9.798 13.625a.325.325 0 01-.282.368.334.334 0 01-.382-.272 1.492 1.492 0 01-.015-.13 3.14 3.14 0 01-2.19-.994 3.31 3.31 0 01-.887-1.944 3.364 3.364 0 01.018-.83c.165-1.134.102-2.15.07-2.676a5.541 5.541 0 01-.014-.333c.002-.213.557-.682 1.288-.972.33-.13.7-.24 1.065-.294.386-.055.776-.05 1.127.056.55.166.985.558 1.152 1.309.604 2.687.064 3.842-.358 4.746-.072.156-.14.302-.193.435a.125.125 0 01-.009.025c-.176.458.082-.213-.052.129-.21.551-.393 1.024-.338 1.377zm-.607-.68a8.17 8.17 0 01.318-.92c.1-.259-.162.416.048-.13l.011-.027c.065-.166.136-.315.208-.472.382-.819.869-1.864.314-4.342-.108-.482-.37-.729-.696-.827-.245-.074-.533-.075-.828-.032-.316.046-.631.14-.913.25-.496.195-.87.36-.87.374 0 .047.005.153.014.294.033.546.098 1.604-.074 2.804a2.803 2.803 0 00-.017.68c.061.609.325 1.155.716 1.569.386.408.897.685 1.457.76.104.011.208.018.312.018z" fill="#fff"/><path d="M8.644 6.771c-.015.106.202.39.484.428.282.038.525-.184.54-.29.015-.106-.202-.224-.484-.261-.282-.038-.525.018-.54.123z" fill="#fff"/><path d="M8.755 6.785c-.004.024.035.085.1.15.073.074.175.14.288.157h.002a.434.434 0 00.293-.074c.073-.046.117-.096.123-.125 0-.005-.028-.022-.075-.047a.972.972 0 00-.315-.093h-.004a.967.967 0 00-.326.007.353.353 0 00-.086.025zm-.061.3c-.11-.112-.17-.244-.16-.326v-.004c.015-.102.11-.172.255-.206.109-.025.254-.03.408-.01h.005c.156.02.296.064.394.118.13.07.202.164.187.265-.01.078-.094.193-.219.273a.663.663 0 01-.449.11h-.002a.732.732 0 01-.42-.22zm8.569-.53c.015.105-.202.39-.484.427-.284.038-.525-.184-.54-.29-.015-.105.202-.223.486-.261.28-.038.522.018.538.124z" fill="#fff"/><path d="M17.317 6.547c.01.068-.046.185-.145.285a.68.68 0 01-.387.204h-.002a.616.616 0 01-.409-.1c-.111-.072-.183-.17-.195-.236-.01-.077.05-.153.16-.212.093-.05.225-.091.373-.11.149-.02.288-.015.392.008.122.027.202.083.213.161zm-.226.21c.076-.077.12-.156.115-.195-.004-.029-.052-.054-.126-.072a1.017 1.017 0 00-.351-.007 1.043 1.043 0 00-.334.098c-.067.036-.106.074-.102.102.005.04.06.106.146.162a.499.499 0 00.332.082h.002a.57.57 0 00.318-.17zm.848-.922a.33.33 0 01.32-.34.332.332 0 01.352.308c.028.5-.035.898-.102 1.315a7.6 7.6 0 00-.114 1.001c-.01.346.036.729.086 1.123.13 1.036.267 2.146-.53 3.294a.345.345 0 01-.467.09.318.318 0 01-.093-.45c.657-.947.535-1.933.42-2.857-.052-.412-.102-.813-.087-1.218.013-.419.066-.753.118-1.077.064-.39.121-.76.097-1.19z" fill="#fff"/></g><defs><clipPath id="clip0_341_3"><path fill="#fff" d="M0 0h22v22H0z"/></clipPath></defs></svg>