<svg width="22" height="22" fill="none" xmlns="http://www.w3.org/2000/svg"><path d="M7.997 10.241h5.09c1.415 0 2.544-1.16 2.544-2.573v-4.83c0-1.374-1.163-2.402-2.545-2.634-1.706-.28-3.56-.266-5.09.005-2.153.379-2.544 1.17-2.544 2.635v1.033h5.094v1.54H3.541c-1.482 0-2.779.886-3.184 2.568-.467 1.93-.486 3.133 0 5.147.363 1.498 1.225 2.569 2.707 2.569h1.75v-2.313c0-1.673 1.453-3.147 3.183-3.147z" fill="#347AB4"/><path d="M21.609 8.754c-.367-1.465-1.063-2.57-2.545-2.57h-1.911v2.247c0 1.744-1.487 3.213-3.183 3.213H8.88c-1.392 0-2.545 1.185-2.545 2.574v4.824c0 1.374 1.201 2.18 2.545 2.573 1.61.47 3.16.555 5.09 0 1.281-.37 2.544-1.113 2.544-2.573v-1.011H11.43v-1.562h7.634c1.482 0 2.03-1.029 2.545-2.569.533-1.587.51-3.113 0-5.146z" fill="#FFCA1D"/><path d="M7.677 2.983a.926.926 0 010-1.851c.503 0 .92.418.92.928a.922.922 0 01-.92.923zm6.177 17.849a.926.926 0 010-1.851c.503 0 .92.418.92.928s-.412.923-.92.923z" fill="#fff"/></svg>