<svg width="256" height="256" viewBox="0 0 256 256" fill="none" xmlns="http://www.w3.org/2000/svg">
<g filter="url(#filter0_f_3_58)">
<path fill-rule="evenodd" clip-rule="evenodd" d="M129.488 203.411C152.243 203.411 184.733 203.377 198.473 187.364C209.716 174.261 204.403 147.116 204.403 128.496C204.403 106.71 213.319 74.5067 198.473 60.8178C185.124 48.5098 149.077 53.5814 129.488 53.5814C107.22 53.58 74.7335 45.394 61.0117 60.8178C49.2381 74.0518 54.5737 109.39 54.5737 128.496C54.5737 143.491 43.614 175.651 51.2015 187.364C64.5492 207.97 103.109 203.411 129.488 203.411Z" fill="url(#paint0_linear_3_58)"/>
</g>
<defs>
<filter id="filter0_f_3_58" x="8.83582" y="11.7199" width="237.912" height="231.81" filterUnits="userSpaceOnUse" color-interpolation-filters="sRGB">
<feFlood flood-opacity="0" result="BackgroundImageFix"/>
<feBlend mode="normal" in="SourceGraphic" in2="BackgroundImageFix" result="shape"/>
<feGaussianBlur stdDeviation="19.845" result="effect1_foregroundBlur_3_58"/>
</filter>
<linearGradient id="paint0_linear_3_58" x1="61.3788" y1="6.94451" x2="-197.561" y2="222.986" gradientUnits="userSpaceOnUse">
<stop stop-color="#3A0CA3"/>
<stop offset="0.135417" stop-color="#7209B7"/>
<stop offset="0.317708" stop-color="#B5179E"/>
</linearGradient>
</defs>
</svg>
