<svg width="658" height="356" viewBox="0 0 658 356" fill="none" xmlns="http://www.w3.org/2000/svg">
<g filter="url(#filter0_f_369_2)">
<path d="M329 243.25C448.421 243.25 545.231 214.04 545.231 178.008C545.231 141.976 448.421 112.766 329 112.766C209.579 112.766 112.769 141.976 112.769 178.008C112.769 214.04 209.579 243.25 329 243.25Z" fill="url(#paint0_linear_369_2)"/>
</g>
<g filter="url(#filter1_f_369_2)">
<path fill-rule="evenodd" clip-rule="evenodd" d="M367.547 219.017C327.147 216.653 297.657 211.804 279.077 204.469C263.386 198.275 223.365 188.093 219.331 153.775C216.207 127.212 237.365 110.115 251.394 101.703C272.797 88.8698 299.898 85.4153 332.698 91.3392L425.931 174.873C418.22 186.772 411.095 195.193 404.558 200.136C398.021 205.079 385.684 211.372 367.547 219.017Z" fill="url(#paint1_linear_369_2)"/>
</g>
<defs>
<filter id="filter0_f_369_2" x="0.924988" y="0.921875" width="656.15" height="354.172" filterUnits="userSpaceOnUse" color-interpolation-filters="sRGB">
<feFlood flood-opacity="0" result="BackgroundImageFix"/>
<feBlend mode="normal" in="SourceGraphic" in2="BackgroundImageFix" result="shape"/>
<feGaussianBlur stdDeviation="55.9219" result="effect1_foregroundBlur_369_2"/>
</filter>
<filter id="filter1_f_369_2" x="159.37" y="28.8828" width="326.211" height="249.784" filterUnits="userSpaceOnUse" color-interpolation-filters="sRGB">
<feFlood flood-opacity="0" result="BackgroundImageFix"/>
<feBlend mode="normal" in="SourceGraphic" in2="BackgroundImageFix" result="shape"/>
<feGaussianBlur stdDeviation="29.825" result="effect1_foregroundBlur_369_2"/>
</filter>
<linearGradient id="paint0_linear_369_2" x1="545.231" y1="172.068" x2="145.569" y2="292.656" gradientUnits="userSpaceOnUse">
<stop stop-color="#3A0CA3"/>
<stop offset="0.336458" stop-color="#7209B7"/>
<stop offset="0.794792" stop-color="#B5179E"/>
</linearGradient>
<linearGradient id="paint1_linear_369_2" x1="322.476" y1="88.5328" x2="322.476" y2="219.017" gradientUnits="userSpaceOnUse">
<stop stop-opacity="0"/>
<stop offset="1" stop-opacity="0.988718"/>
</linearGradient>
</defs>
</svg>
