<svg width="22" height="22" viewBox="0 0 22 22" fill="none" xmlns="http://www.w3.org/2000/svg">
<g clip-path="url(#clip0_314_2)">
<path d="M21.5981 10.021C21.5972 10.021 21.5972 10.0206 21.5972 10.0206L11.9731 0.390216C11.4539 -0.130221 10.5452 -0.129773 10.0278 0.389768L0.401937 10.021C0.143229 10.2813 0 10.6266 0 10.9934C0 11.3606 0.143229 11.7063 0.402832 11.9661L10.0269 21.5965C10.2865 21.8567 10.6321 22 11 22C11.3679 22 11.7135 21.8567 11.9722 21.5969L21.5972 11.9661C21.8568 11.7063 22 11.3606 22 10.9934C22 10.6266 21.8568 10.2813 21.5981 10.021Z" fill="#EF473B"/>
<path opacity="0.1" d="M21.7076 11.6324L11.9823 21.3636C11.7209 21.626 11.3717 21.7709 11 21.7709C10.6283 21.7709 10.2791 21.626 10.0168 21.3631L0.292445 11.6324C0.178813 11.5187 0.09198 11.3864 0.0246735 11.2454C0.0746917 11.5167 0.20371 11.7669 0.402832 11.9661L10.0269 21.5965C10.2865 21.8567 10.6321 22 11 22C11.3679 22 11.7135 21.8567 11.9722 21.5969L21.5972 11.9661C21.7963 11.7669 21.9254 11.5167 21.9754 11.2454C21.9081 11.3864 21.8212 11.5187 21.7076 11.6324Z" fill="#010101"/>
<path d="M15.5833 9.16668C15.2397 9.16668 14.9215 9.26756 14.6463 9.43278L12.5672 7.35371C12.7324 7.07856 12.8333 6.76038 12.8333 6.41668C12.8333 5.40557 12.0107 4.58335 11 4.58335C10.6609 4.58335 10.3471 4.68215 10.0743 4.84329L7.82507 2.59375L7.17712 3.24203L9.42633 5.49151C9.26542 5.76409 9.16667 6.0778 9.16667 6.41668C9.16667 7.26856 9.75335 7.97995 10.5417 8.18489V13.8151C9.75335 14.0201 9.16667 14.7315 9.16667 15.5833C9.16667 16.5945 9.98934 17.4167 11 17.4167C12.0107 17.4167 12.8333 16.5945 12.8333 15.5833C12.8333 14.7315 12.2467 14.0201 11.4583 13.8151V8.18489C11.6204 8.14276 11.7723 8.0787 11.9138 7.99651L14.0035 10.0862C13.8466 10.3563 13.75 10.6657 13.75 11C13.75 12.0111 14.5727 12.8333 15.5833 12.8333C16.594 12.8333 17.4167 12.0111 17.4167 11C17.4167 9.98891 16.594 9.16668 15.5833 9.16668Z" fill="white"/>
<path opacity="0.2" d="M0.401937 10.2502L10.0278 0.618935C10.5452 0.0993932 11.4539 0.0989457 11.9731 0.619382L21.5972 10.2498C21.5972 10.2498 21.5972 10.2502 21.5981 10.2502C21.8294 10.4828 21.962 10.7848 21.9888 11.108C21.992 11.0696 22 11.0323 22 10.9934C22 10.6266 21.8568 10.2813 21.5981 10.021C21.5972 10.021 21.5972 10.0206 21.5972 10.0206L11.9731 0.390216C11.4539 -0.130221 10.5452 -0.129773 10.0278 0.389768L0.401937 10.021C0.143229 10.2813 0 10.6266 0 10.9934C0 11.0323 0.00800067 11.0696 0.0111897 11.1079C0.0381012 10.7847 0.1707 10.4828 0.401937 10.2502Z" fill="white"/>
<path d="M17.0031 9.8545C17.2577 10.1693 17.4167 10.5644 17.4167 11C17.4167 12.0111 16.594 12.8333 15.5833 12.8333C14.5727 12.8333 13.75 12.0111 13.75 11C13.75 10.6657 13.8466 10.3563 14.0035 10.0862L11.9138 7.99649C11.7723 8.07868 11.6204 8.14274 11.4583 8.18487V13.8151C12.2467 14.0201 12.8333 14.7315 12.8333 15.5833C12.8333 16.5944 12.0107 17.4167 11 17.4167C10.5311 17.4167 10.1073 17.2345 9.78278 16.9439L13.2036 20.3647L20.3563 13.2077L17.0031 9.8545ZM12.5672 7.35369L14.6463 9.43275C14.9215 9.26754 15.2397 9.16666 15.5833 9.16666C16.0188 9.16666 16.4141 9.32572 16.729 9.5804L12.4411 5.29248L12.4389 5.29433C12.6822 5.60546 12.8333 5.9919 12.8333 6.41666C12.8333 6.76036 12.7324 7.07854 12.5672 7.35369Z" fill="url(#paint0_linear_314_2)"/>
<path d="M21.5981 10.021C21.5972 10.021 21.5972 10.0206 21.5972 10.0206L11.9731 0.390216C11.4539 -0.130221 10.5452 -0.129773 10.0278 0.389768L0.401937 10.021C0.143229 10.2813 0 10.6266 0 10.9934C0 11.3606 0.143229 11.7063 0.402832 11.9661L10.0269 21.5965C10.2865 21.8567 10.6321 22 11 22C11.3679 22 11.7135 21.8567 11.9722 21.5969L21.5972 11.9661C21.8568 11.7063 22 11.3606 22 10.9934C22 10.6266 21.8568 10.2813 21.5981 10.021Z" fill="url(#paint1_linear_314_2)"/>
</g>
<defs>
<linearGradient id="paint0_linear_314_2" x1="8.86349" y1="8.86973" x2="16.781" y2="16.7873" gradientUnits="userSpaceOnUse">
<stop stop-color="#010101" stop-opacity="0.1"/>
<stop offset="1" stop-color="#010101" stop-opacity="0"/>
</linearGradient>
<linearGradient id="paint1_linear_314_2" x1="1.846" y1="6.72827" x2="20.1514" y2="15.2642" gradientUnits="userSpaceOnUse">
<stop stop-color="white" stop-opacity="0.2"/>
<stop offset="1" stop-color="white" stop-opacity="0"/>
</linearGradient>
<clipPath id="clip0_314_2">
<rect width="22" height="22" fill="white"/>
</clipPath>
</defs>
</svg>
