<svg width="71" height="22" viewBox="0 0 71 22" fill="none" xmlns="http://www.w3.org/2000/svg">
<path d="M65.8288 9.10127C65.7707 9.1173 65.6981 9.2615 65.6981 9.35764C65.6836 9.91846 65.669 11.3926 65.669 12.4021C65.669 12.4341 65.7126 12.4822 65.7417 12.4822C65.9305 12.4982 66.3807 12.5142 66.7728 12.5142C67.3102 12.5142 67.6297 12.4341 67.804 12.354C68.2543 12.0976 68.4721 11.5528 68.4721 10.96C68.4721 9.61402 67.6152 9.08525 66.3371 9.08525C66.2645 9.0532 66.0176 9.0532 65.8288 9.10127ZM69.0821 15.3343C69.0821 13.9563 68.1671 13.1872 66.4969 13.1872C66.4243 13.1872 65.8869 13.1712 65.7707 13.2032C65.7271 13.2193 65.6836 13.2513 65.6836 13.2834C65.6836 14.2768 65.669 15.8471 65.7126 16.456C65.7417 16.7284 65.9159 17.0969 66.1338 17.2091C66.3662 17.3533 66.8745 17.3693 67.2376 17.3693C68.2107 17.3693 69.0821 16.7604 69.0821 15.3343ZM63.2436 8.33215C63.3743 8.33215 63.7519 8.38022 64.725 8.38022C65.64 8.38022 66.3807 8.34818 67.2812 8.34818C68.385 8.34818 69.8954 8.78081 69.8954 10.5914C69.8954 11.4887 69.329 12.1938 68.5883 12.5463C68.5447 12.5623 68.5447 12.5944 68.5883 12.5944C69.6485 12.8828 70.5781 13.6038 70.5781 14.9818C70.5781 16.3118 69.8228 17.177 68.719 17.7058C68.0509 18.0263 67.2231 18.1384 66.3662 18.1384C65.7271 18.1384 63.9988 18.0583 63.0257 18.0903C62.9241 18.0423 63.1129 17.5456 63.2 17.4654C63.4324 17.4494 63.6067 17.4334 63.8391 17.3533C64.1731 17.2571 64.2167 17.145 64.2748 16.5681C64.3038 16.0874 64.3038 14.3569 64.3038 13.1231C64.3038 11.4407 64.3183 10.287 64.3038 9.7422C64.2893 9.30957 64.1586 9.16537 63.8681 9.08525C63.6503 9.03718 63.3017 8.98911 63.0112 8.94104C62.9531 8.86092 63.171 8.38022 63.2436 8.33215ZM55.9672 17.0008C56.2722 17.2732 56.8677 17.3693 57.3905 17.3693C58.0732 17.3693 58.7558 17.2251 59.4093 16.5681C60.0774 15.8952 60.5422 14.8697 60.5422 13.2193C60.5422 11.649 60.0048 10.3671 58.8865 9.61402C58.262 9.18139 57.4486 9.00513 56.5191 9.00513C56.2432 9.00513 55.9817 9.02116 55.8075 9.10127C55.7639 9.13332 55.6767 9.26151 55.6767 9.3256C55.6477 9.59799 55.6477 11.7451 55.6477 13.011C55.6477 14.3088 55.6477 16.1195 55.6767 16.3278C55.6913 16.5361 55.7784 16.8566 55.9672 17.0008ZM53.0915 8.33215C53.3384 8.33215 54.2534 8.38022 54.6891 8.38022C55.4879 8.38022 56.0544 8.33215 57.5503 8.33215C58.8139 8.33215 59.8741 8.70069 60.6293 9.42174C61.5443 10.303 62.0381 11.5048 62.0381 12.9949C62.0381 15.094 61.1667 16.3118 60.2953 17.0008C59.4239 17.7058 58.291 18.1224 56.6644 18.1224C55.8075 18.1224 54.326 18.0903 53.1061 18.0743H53.0915C53.0334 17.9461 53.1932 17.4654 53.2949 17.4494C53.6289 17.4013 53.716 17.4013 53.8758 17.3212C54.1372 17.2091 54.1953 17.0488 54.2244 16.5361C54.2679 15.5747 54.2534 14.421 54.2534 13.1071C54.2534 12.1777 54.2679 10.3511 54.2389 9.75823C54.1953 9.27753 54.0065 9.14934 53.6289 9.06923C53.4401 9.02116 53.1932 8.97309 52.8301 8.92502C52.8011 8.8449 53.0334 8.41227 53.0915 8.33215Z" fill="#8E714E"/>
<path d="M37.8126 17.5455C37.4931 17.4974 37.2753 17.4493 36.9848 17.3051C36.9412 17.2731 36.8831 17.1449 36.8831 17.0808C36.8541 16.6001 36.8541 15.206 36.8541 14.2607C36.8541 13.5076 36.7379 12.8506 36.4474 12.3859C36.1134 11.8572 35.6196 11.5527 34.9805 11.5527C34.4286 11.5527 33.6734 11.9693 33.0634 12.5622C33.0489 12.5782 32.9472 12.6744 32.9617 12.5141C32.9617 12.3539 32.9908 12.0495 33.0053 11.8412C33.0198 11.6489 32.9182 11.5527 32.9182 11.5527C32.5115 11.7771 31.3786 12.0655 30.9575 12.1136C30.6525 12.1776 30.5798 12.4981 30.8994 12.6103H30.9139C31.2479 12.7224 31.4803 12.8506 31.6546 12.9788C31.7853 13.091 31.7708 13.2512 31.7708 13.3634C31.7853 14.4049 31.7853 16.0072 31.7417 16.8885C31.7272 17.241 31.6401 17.3692 31.4077 17.4173L31.4367 17.4012C31.2625 17.4493 31.1172 17.4814 30.8994 17.5134C30.8267 17.5935 30.8267 18.0422 30.8994 18.1383C31.0446 18.1383 31.7708 18.0902 32.3808 18.0902C33.2086 18.0902 33.6443 18.1383 33.8622 18.1383C33.9493 18.0261 33.9784 17.6095 33.9203 17.5134C33.6734 17.4974 33.4991 17.4653 33.3393 17.4173C33.107 17.3692 33.0489 17.241 33.0343 16.9366C33.0053 16.1995 33.0053 14.6452 33.0053 13.5717C33.0053 13.2833 33.0779 13.139 33.1505 13.0589C33.441 12.7865 33.9058 12.5782 34.327 12.5782C34.7336 12.5782 34.995 12.7224 35.1984 12.8987C35.4743 13.1551 35.5615 13.5076 35.605 13.78C35.6631 14.3728 35.6486 15.5586 35.6486 16.6001C35.6486 17.1609 35.605 17.2891 35.4162 17.3692C35.3291 17.4173 35.0967 17.4653 34.8353 17.4974C34.7481 17.5935 34.7772 18.0262 34.8353 18.1223C35.1984 18.1223 35.6341 18.0742 36.2586 18.0742C37.0429 18.0742 37.5512 18.1223 37.7545 18.1223C37.8417 18.0582 37.8707 17.6576 37.8126 17.5455ZM41.3129 12.2257C40.6448 12.2257 40.2236 12.8026 40.2236 13.6838C40.2236 14.5972 40.5867 15.6387 41.6324 15.6387C41.8067 15.6387 42.1407 15.5586 42.2859 15.3663C42.5328 15.1099 42.6926 14.6132 42.6926 14.0844C42.6926 12.9147 42.1697 12.2257 41.3129 12.2257ZM41.2257 18.3787C40.9788 18.3787 40.79 18.4588 40.6883 18.5389C40.151 18.9074 39.9186 19.276 39.9186 19.7086C39.9186 20.1092 40.0638 20.4296 40.3543 20.7181C40.7174 21.0706 41.2257 21.2308 41.8648 21.2308C43.1574 21.2308 43.7238 20.4617 43.7238 19.7086C43.7238 19.1798 43.4769 18.8273 42.9976 18.635C42.6345 18.4588 41.9955 18.3787 41.2257 18.3787ZM41.3129 21.9999C40.5431 21.9999 39.9912 21.8237 39.5119 21.4071C39.0472 21.0225 38.8438 20.4296 38.8438 20.0291C38.8438 19.9169 38.8729 19.6125 39.0907 19.3401C39.236 19.1798 39.5264 18.8594 40.2526 18.3146C40.2817 18.2985 40.2962 18.2825 40.2962 18.2665C40.2962 18.2345 40.2671 18.2184 40.2526 18.2024C39.6572 17.946 39.4829 17.5455 39.4248 17.3211V17.2731C39.4102 17.1929 39.3812 17.1128 39.4974 17.0167C39.5845 16.9526 39.7152 16.8564 39.846 16.7603C40.0638 16.6161 40.2817 16.4719 40.4269 16.3437C40.456 16.3117 40.456 16.2956 40.456 16.2636C40.456 16.2315 40.4269 16.2155 40.4124 16.1995C39.5264 15.879 39.0907 15.158 39.0907 14.0684C39.0907 13.3634 39.3812 12.7224 39.9041 12.3058C40.2526 12.0014 41.1386 11.6168 41.7195 11.6168H41.7631C42.3586 11.6328 42.6781 11.7771 43.1574 11.9533C43.4043 12.0495 43.6512 12.0975 43.9852 12.0975C44.479 12.0975 44.6969 11.9373 44.8712 11.729C44.8857 11.761 44.9147 11.8251 44.9147 12.0014C44.9293 12.1776 44.8712 12.45 44.755 12.6423C44.6533 12.8026 44.4209 12.9147 44.2031 12.9147H44.145C43.9126 12.8827 43.8109 12.8666 43.8109 12.8666L43.7674 12.8987C43.7528 12.9307 43.7674 12.9468 43.7819 12.9948L43.7964 13.0269C43.8254 13.1551 43.869 13.5236 43.869 13.6197C43.869 14.7574 43.4478 15.2701 43.0121 15.6387C42.5764 15.9912 42.0971 16.2155 41.5307 16.2636C41.5162 16.2636 41.4726 16.2636 41.3564 16.2796C41.2983 16.2796 41.2112 16.2956 41.1967 16.2956H41.1821C41.0805 16.3277 40.8336 16.4559 40.8336 16.6962C40.8336 16.9045 40.9498 17.1609 41.4871 17.1929C41.6033 17.209 41.7195 17.209 41.8357 17.225C42.5619 17.2731 43.4478 17.3532 43.869 17.4974C44.45 17.7377 44.8131 18.2985 44.8131 18.9875C44.8131 20.013 44.145 20.9744 43.0266 21.5833C42.4457 21.8557 41.9083 21.9999 41.3129 21.9999ZM48.5166 12.2898C48.2552 12.2898 48.0083 12.3539 47.834 12.4981C47.3402 12.8346 47.0933 13.5076 47.0933 14.469C47.0933 16.2956 47.9211 17.5775 49.1121 17.5775C49.4606 17.5775 49.7366 17.4653 49.9835 17.241C50.3466 16.9045 50.5354 16.2315 50.5354 15.3022C50.5354 13.5076 49.7075 12.2898 48.5166 12.2898ZM48.7345 18.2505C46.585 18.2505 45.8152 16.5039 45.8152 14.8856C45.8152 13.7479 46.2364 12.8666 47.0642 12.2417C47.6597 11.8412 48.3714 11.6168 48.9959 11.6168C50.6371 11.6168 51.7844 12.9147 51.7844 14.7734C51.7844 16.0393 51.3342 17.0487 50.4628 17.6576C50.0561 17.9621 49.3299 18.2505 48.7345 18.2505ZM26.2373 12.2898C25.9758 12.2898 25.7289 12.3539 25.5547 12.4981C25.0608 12.8346 24.8139 13.5076 24.8139 14.469C24.8139 16.2956 25.6418 17.5775 26.8327 17.5775C27.1813 17.5775 27.4573 17.4653 27.7042 17.241C28.0672 16.9045 28.2561 16.2315 28.2561 15.3022C28.2561 13.5076 27.4427 12.2898 26.2373 12.2898ZM26.4696 18.2505C24.3201 18.2505 23.5504 16.5039 23.5504 14.8856C23.5504 13.7479 23.9716 12.8666 24.7994 12.2417C25.3949 11.8412 26.1066 11.6168 26.7311 11.6168C28.3722 11.6168 29.5196 12.9147 29.5196 14.7734C29.5196 16.0393 29.0694 17.0487 28.198 17.6576C27.7913 17.9621 27.0651 18.2505 26.4696 18.2505ZM12.0331 18.1063C12.0041 18.0582 11.9895 17.946 11.9895 17.7858C11.9895 17.6736 12.0186 17.6095 12.0331 17.5775C12.2945 17.5294 12.4398 17.4974 12.585 17.4493C12.8319 17.3852 12.9336 17.225 12.9481 16.8725C12.9917 16.0393 12.9917 14.453 12.9771 13.3473V13.3153C12.9771 13.1871 12.9771 13.0429 12.8319 12.9307C12.6286 12.7865 12.3962 12.6583 12.0767 12.5622C11.9605 12.5141 11.8879 12.45 11.9024 12.3699C11.9024 12.2898 11.975 12.1937 12.1493 12.1616C12.5705 12.1135 13.6452 11.8251 14.0809 11.6168C14.11 11.6489 14.139 11.729 14.139 11.8412L14.1245 12.0014C14.11 12.1616 14.0955 12.3379 14.0955 12.5141C14.0955 12.5622 14.139 12.6103 14.1971 12.6103C14.2262 12.6103 14.2407 12.5942 14.2697 12.5782C15.0831 11.8892 15.8093 11.6329 16.1869 11.6329C16.8114 11.6329 17.2907 11.9533 17.6538 12.6263C17.6828 12.6744 17.6973 12.6744 17.7409 12.6744C17.77 12.6744 17.799 12.6583 17.8135 12.6263C18.5542 12.0014 19.3095 11.6168 19.8033 11.6168C20.9797 11.6168 21.6768 12.5782 21.6768 14.2126C21.6768 14.6773 21.6768 15.2701 21.6623 15.8149C21.6623 16.2956 21.6478 16.7443 21.6478 17.0648C21.6478 17.1288 21.7349 17.3532 21.8802 17.4012C22.0544 17.4974 22.3013 17.5455 22.6063 17.5935H22.6209C22.6499 17.6897 22.5918 18.0582 22.5482 18.1223C22.4756 18.1223 22.3594 18.1223 22.2287 18.1063C21.9818 18.0902 21.6478 18.0742 21.2702 18.0742C20.4859 18.0742 20.0792 18.0902 19.6871 18.1223C19.658 18.0101 19.6435 17.6736 19.6871 17.5935C19.9195 17.5455 20.0211 17.5134 20.1664 17.4653C20.4133 17.3852 20.4859 17.257 20.5004 16.8885C20.5004 16.6161 20.544 14.3728 20.4714 13.828C20.3987 13.2672 20.0211 12.6103 19.1788 12.6103C18.8592 12.6103 18.3654 12.7545 17.8861 13.1551C17.8571 13.1871 17.8426 13.2512 17.8426 13.2993V13.3153C17.8861 13.6037 17.8861 13.9402 17.8861 14.453V15.3663C17.8861 15.9912 17.8716 16.5841 17.8861 17.0167C17.8861 17.3211 18.0459 17.3852 18.1911 17.4493C18.2638 17.4653 18.3219 17.4814 18.3799 17.4974C18.4961 17.5294 18.6123 17.5455 18.7866 17.5935C18.8157 17.6416 18.8157 17.8339 18.7721 17.9781C18.7576 18.0582 18.7285 18.1063 18.7285 18.1223C18.2928 18.1063 17.8571 18.0902 17.2181 18.0902C17.0292 18.0902 16.6952 18.1063 16.4193 18.1063C16.1869 18.1063 15.9835 18.1223 15.8528 18.1223C15.8383 18.0902 15.8093 17.9941 15.8093 17.8499C15.8093 17.7217 15.8383 17.6256 15.8528 17.5935C15.9109 17.5775 15.969 17.5615 16.0271 17.5615C16.1723 17.5294 16.3031 17.5134 16.4338 17.4814C16.6516 17.4173 16.7242 17.2891 16.7388 16.9846C16.7823 16.2956 16.8114 14.2927 16.7242 13.796C16.579 12.9948 16.1578 12.5782 15.4897 12.5782C15.0976 12.5782 14.6038 12.7865 14.1971 13.123C14.139 13.1711 14.0809 13.3153 14.0809 13.4435V14.2607C14.0809 15.2701 14.0809 16.52 14.0955 17.0648C14.11 17.225 14.1536 17.4333 14.444 17.4974C14.5021 17.5134 14.6038 17.5455 14.7345 17.5455L14.9669 17.5935C14.9959 17.6736 14.9814 18.0101 14.9233 18.1223C14.7926 18.1223 14.6474 18.1063 14.4731 18.1063C14.2117 18.0902 13.8631 18.0742 13.4855 18.0742C13.0498 18.0742 12.7302 18.0902 12.4688 18.1063C12.3236 18.1063 12.1783 18.1063 12.0331 18.1063Z" fill="#442D22"/>
<path d="M5.38148 21.4552L4.85863 21.2629C4.85863 21.2629 4.91672 18.3467 3.97268 18.1384C3.34816 17.3372 4.07435 -16.1355 6.34004 18.0262C6.34004 18.0262 5.55576 18.4588 5.42505 19.1959C5.27981 19.917 5.38148 21.4552 5.38148 21.4552Z" fill="white"/>
<path d="M5.38148 21.4552L4.85863 21.2629C4.85863 21.2629 4.91672 18.3467 3.97268 18.1384C3.34816 17.3372 4.07435 -16.1355 6.34004 18.0262C6.34004 18.0262 5.55576 18.4588 5.42505 19.1959C5.27981 19.917 5.38148 21.4552 5.38148 21.4552Z" fill="#A6A385"/>
<path d="M5.65717 18.6351C5.65717 18.6351 10.1886 15.3504 9.12833 8.5084C8.11167 3.54118 5.68622 1.9068 5.42479 1.28189C5.13432 0.833238 4.85837 0.0480957 4.85837 0.0480957L5.04718 13.8762C5.0617 13.9083 4.66956 18.1224 5.65717 18.6351Z" fill="white"/>
<path d="M5.65717 18.6351C5.65717 18.6351 10.1886 15.3504 9.12833 8.5084C8.11167 3.54118 5.68622 1.9068 5.42479 1.28189C5.13432 0.833238 4.85837 0.0480957 4.85837 0.0480957L5.04718 13.8762C5.0617 13.9083 4.66956 18.1224 5.65717 18.6351Z" fill="#499D4A"/>
<path d="M4.59701 18.8274C4.59701 18.8274 0.341565 15.6227 0.588468 9.98252C0.835371 4.34232 3.82725 1.57028 4.4082 1.05754C4.80034 0.608886 4.81486 0.448653 4.84391 0C5.10533 0.624909 5.06176 9.37364 5.09081 10.4152C5.207 14.3729 4.88748 18.0743 4.59701 18.8274Z" fill="white"/>
<path d="M4.59701 18.8274C4.59701 18.8274 0.341565 15.6227 0.588468 9.98252C0.835371 4.34232 3.82725 1.57028 4.4082 1.05754C4.80034 0.608886 4.81486 0.448653 4.84391 0C5.10533 0.624909 5.06176 9.37364 5.09081 10.4152C5.207 14.3729 4.88748 18.0743 4.59701 18.8274Z" fill="#58AA50"/>
</svg>
