<svg width="22" height="22" viewBox="0 0 22 22" fill="none" xmlns="http://www.w3.org/2000/svg">
<g clip-path="url(#clip0_341_3)">
<path d="M21.072 13.5262C18.3529 14.0669 18.1654 13.1789 18.1654 13.1789C21.0367 9.06998 22.2358 3.85286 21.2001 2.57633C18.3751 -0.905927 13.4844 0.741208 13.4027 0.784177L13.3749 0.787758C12.8385 0.680336 12.2371 0.615883 11.5615 0.60514C10.3309 0.585446 9.39733 0.916664 8.69016 1.43408C8.69016 1.43408 -0.0352229 -2.03386 0.371256 5.79541C0.458492 7.46045 2.8454 18.396 5.69447 15.0928C6.73572 13.8843 7.74171 12.8638 7.74171 12.8638C8.24099 13.1842 8.8405 13.3472 9.466 13.2881L9.51426 13.2487C9.49941 13.3991 9.50683 13.5459 9.53282 13.7196C8.79967 14.5109 9.01497 14.6488 7.54682 14.9406C6.06197 15.236 6.93432 15.7606 7.50413 15.8984C8.19459 16.0649 9.79081 16.3013 10.871 14.8439L10.8284 15.0104C11.116 15.2324 11.3184 16.4552 11.2849 17.5635C11.2515 18.6717 11.2293 19.4326 11.4557 20.027C11.6821 20.6214 11.9086 21.9588 13.837 21.5596C15.4481 21.2266 16.2833 20.3636 16.4003 18.9241C16.4819 17.9001 16.6694 18.0522 16.6805 17.1374L16.8309 16.7041C17.0035 15.3166 16.8587 14.869 17.8517 15.0767L18.093 15.0964C18.8243 15.1286 19.7802 14.9836 20.3407 14.7311C21.5453 14.1922 22.2636 13.2881 21.072 13.5262Z" fill="#336791"/>
<path d="M10.652 14.3122C10.6576 14.1331 10.8116 13.9917 10.9972 13.9971C11.1829 14.0025 11.3295 14.1511 11.3239 14.3301C11.2849 15.6603 11.2924 16.9942 11.3425 18.0612C11.3889 19.0226 11.4687 19.7459 11.5801 20.0145C11.6988 20.2992 11.8826 20.7199 12.2352 21.0046C12.5786 21.2839 13.1076 21.454 13.9503 21.2803C14.6871 21.1281 15.1827 20.9115 15.5131 20.5803C15.8397 20.2526 16.0253 19.7889 16.1404 19.1408C16.2258 18.6681 16.3427 17.8428 16.4485 17.021C16.5822 15.9933 16.7047 14.9549 16.7306 14.6201C16.7436 14.4411 16.9051 14.3068 17.0907 14.3211C17.2763 14.3337 17.4155 14.4894 17.4007 14.6685C17.3747 14.9943 17.2522 16.0453 17.113 17.1034C17.0016 17.952 16.8828 18.7935 16.8012 19.25C16.662 20.0252 16.4263 20.5964 15.9938 21.0296C15.5632 21.4611 14.96 21.7332 14.0857 21.9141C12.9999 22.1379 12.2835 21.8926 11.7991 21.4987C11.3221 21.112 11.0956 20.5999 10.9527 20.2544C10.8116 19.916 10.717 19.1175 10.6669 18.0881C10.6186 17.0121 10.613 15.6603 10.652 14.3122Z" fill="white"/>
<path d="M8.79988 1.07601C8.9725 1.14225 9.05602 1.33024 8.98734 1.49674C8.91867 1.66325 8.72378 1.74381 8.55117 1.67757C8.52889 1.66862 0.306504 -1.57194 0.686998 5.74707C0.7334 6.6512 1.47583 10.3501 2.60432 12.93C2.96068 13.7428 3.35231 14.4375 3.76807 14.8815C4.11516 15.2539 4.46967 15.4329 4.81119 15.3148C5.00051 15.2485 5.20282 15.0999 5.41627 14.8529C6.46123 13.6408 7.41154 12.6829 7.41525 12.6812C7.54332 12.5522 7.75491 12.5469 7.88855 12.6704C8.02219 12.7939 8.02776 12.998 7.89969 13.127C7.89783 13.1287 6.9698 14.0615 5.93225 15.2664C5.63714 15.6102 5.33645 15.8232 5.03391 15.9271C4.39171 16.1473 3.80148 15.8895 3.26694 15.3166C2.79921 14.8171 2.3686 14.0597 1.98625 13.1807C0.826204 10.5327 0.0633588 6.71566 0.015101 5.77751C-0.417363 -2.55843 8.7739 1.06527 8.79988 1.07601Z" fill="white"/>
<path d="M13.5679 1.02588L13.0686 0.499515C13.1094 0.485192 13.1503 0.47266 13.1911 0.461918C13.3006 0.427901 13.4194 0.393884 13.5475 0.358077C13.7349 0.304366 14.0096 0.234541 14.3456 0.171879C16.0216 -0.141435 19.292 -0.31152 21.4469 2.34538C22.0557 3.09554 22.0056 4.95215 21.3764 7.15072C20.8196 9.09685 19.8154 11.3402 18.4271 13.3275C18.3231 13.4761 18.1134 13.5155 17.9593 13.4152C17.8053 13.3149 17.7645 13.1126 17.8684 12.964C19.2159 11.0358 20.1885 8.86052 20.7286 6.97706C21.304 4.96827 21.3949 3.33008 20.9179 2.74284C18.9839 0.359867 16.0012 0.521 14.4699 0.809248C14.1563 0.86833 13.9057 0.930993 13.7349 0.979333L13.5679 1.02588Z" fill="white"/>
<path d="M18.4661 13.0464C18.4698 13.0553 18.4716 13.0643 18.4735 13.0732C18.4735 13.075 18.5886 13.6533 20.9847 13.1771C21.3244 13.1091 21.5657 13.1234 21.7216 13.1968C21.9239 13.2899 22.0111 13.4456 21.9982 13.6462C21.9907 13.7679 21.9313 13.8986 21.833 14.0293C21.6065 14.3283 21.0887 14.715 20.4595 14.9961C19.988 15.2074 19.2697 15.3488 18.6108 15.3846C18.2229 15.4061 17.8517 15.3918 17.5566 15.3345C17.1854 15.2629 16.9032 15.1143 16.7863 14.8726C16.7548 14.8081 16.7362 14.7383 16.7325 14.6631C16.6582 13.4063 17.293 13.186 17.7366 13.0643C17.6902 12.9998 17.6271 12.9229 17.5566 12.8387C17.332 12.5684 17.0443 12.221 16.816 11.6893C16.7807 11.6087 16.6787 11.4297 16.5413 11.1934C15.9604 10.189 14.817 8.20883 15.0416 6.8571C15.2012 5.8921 15.9641 5.25115 17.8703 5.44272L17.8517 5.389C17.7607 5.14014 17.616 4.8143 17.4062 4.44906C16.5747 2.98813 14.7613 0.950691 11.5411 0.90056C6.62804 0.823575 6.78951 6.79981 6.78951 6.81593C6.79323 6.99496 6.64474 7.14177 6.45913 7.14535C6.27353 7.14893 6.12133 7.0057 6.11762 6.82667C6.11762 6.80697 5.93572 0.16472 11.5503 0.252448C15.0954 0.30795 17.0851 2.53874 17.9946 4.13575C18.221 4.53321 18.3825 4.89486 18.4846 5.17595C18.5997 5.49106 18.6424 5.73813 18.6238 5.84734C18.5978 6.00847 18.505 6.10873 18.3454 6.13917L18.2248 6.14096C16.4763 5.87061 15.8156 6.28419 15.7042 6.95736C15.5168 8.09066 16.5859 9.93832 17.1278 10.8783C17.2745 11.1325 17.3858 11.3259 17.4359 11.444C17.629 11.8934 17.8814 12.1978 18.0781 12.4377C18.2619 12.6543 18.4067 12.8298 18.4661 13.0464ZM21.1202 13.8109C19.344 14.1654 18.5162 13.9058 18.1357 13.6265C18.0837 13.6426 18.028 13.6569 17.9686 13.673C17.731 13.7375 17.3617 13.8377 17.4007 14.6076C17.4285 14.6362 17.5324 14.6667 17.6846 14.6971C17.9278 14.7437 18.2396 14.7544 18.5718 14.7365C19.1528 14.7043 19.7783 14.5843 20.1773 14.4053C20.5875 14.2209 20.9309 13.9989 21.1425 13.8055L21.1202 13.8109Z" fill="white"/>
<path d="M9.76296 13.9058C9.62561 14.0544 9.51239 14.1922 9.41588 14.3104C9.00383 14.8153 8.87576 14.9728 7.59693 15.2271C7.36678 15.2736 7.21087 15.3184 7.11435 15.3631C7.23314 15.4455 7.41132 15.5135 7.56723 15.5511C7.88276 15.6281 8.40618 15.7194 8.96671 15.6281C9.51239 15.5386 10.1008 15.2682 10.5778 14.6237C10.5926 14.6022 10.6056 14.5789 10.6168 14.5557C10.665 14.4429 10.6539 14.3014 10.6056 14.1672C10.5536 14.0239 10.459 13.8986 10.3495 13.8216C10.3235 13.8037 10.2975 13.7894 10.2697 13.7786L10.253 13.7715C10.1843 13.7446 10.1082 13.716 10.0432 13.7214C9.9727 13.7285 9.88361 13.7751 9.76296 13.9058ZM8.8869 13.9076C8.97785 13.7966 9.08364 13.6676 9.24326 13.494C9.25626 13.4779 9.27111 13.4618 9.28595 13.4474C9.53281 13.1896 9.76853 13.0929 9.98569 13.075C10.201 13.0571 10.368 13.1162 10.5091 13.1735C10.5147 13.1753 10.5202 13.1771 10.5277 13.1807C10.6001 13.2093 10.6706 13.2487 10.7393 13.2953C10.9601 13.4474 11.142 13.6891 11.2404 13.9523C11.3406 14.2262 11.3573 14.5324 11.2385 14.8045C11.2088 14.8726 11.1717 14.937 11.1253 14.9997C10.524 15.8125 9.7741 16.1527 9.07993 16.2673C8.39875 16.38 7.77882 16.2708 7.4039 16.1813C7.13106 16.1151 6.79325 15.9683 6.59465 15.7892C6.47772 15.6836 6.39791 15.5583 6.37564 15.4186C6.34965 15.2521 6.40162 15.091 6.55939 14.9478C6.71158 14.8099 6.99371 14.6846 7.45958 14.5915C8.49712 14.3856 8.58993 14.2728 8.8869 13.9076Z" fill="white"/>
<path d="M9.79819 13.6247C9.82603 13.8019 9.69981 13.9684 9.51606 13.9935C9.33231 14.0186 9.1597 13.8986 9.13371 13.7214C9.12629 13.6784 9.12258 13.6354 9.11886 13.5907C9.0075 13.5871 8.89799 13.5799 8.79034 13.5638C8.07018 13.4671 7.4187 13.1162 6.9287 12.597C6.44427 12.085 6.1176 11.4082 6.0415 10.6527C6.01366 10.3841 6.01923 10.1048 6.06006 9.82373C6.22525 8.68864 6.16214 7.6735 6.13059 7.14713C6.12131 7.0039 6.11574 6.89648 6.11574 6.81413C6.1176 6.60107 6.67256 6.132 7.40386 5.84196C7.73424 5.71126 8.10359 5.60205 8.46924 5.54834C8.8553 5.49284 9.24508 5.49821 9.59587 5.60384C10.1453 5.77034 10.5814 6.16243 10.7485 6.9126C11.3517 9.59993 10.8116 10.7547 10.3903 11.6589C10.3179 11.8146 10.2492 11.9614 10.1972 12.0939C10.1954 12.1029 10.1917 12.11 10.188 12.119C10.0116 12.5773 10.2696 11.9059 10.136 12.2479C9.92625 12.7993 9.7425 13.272 9.79819 13.6247ZM9.19125 12.9443C9.26364 12.6561 9.38243 12.3517 9.50864 12.0241C9.60887 11.7663 9.34716 12.4412 9.5569 11.8952C9.56061 11.8862 9.56432 11.8773 9.56803 11.8683C9.633 11.7018 9.70353 11.5532 9.77591 11.3957C10.1583 10.5775 10.6446 9.5319 10.0896 7.05403C9.98194 6.57243 9.72023 6.32536 9.39356 6.22689C9.14856 6.15348 8.86087 6.15169 8.56576 6.19466C8.25022 6.24121 7.93469 6.33431 7.65257 6.44531C7.157 6.64046 6.78207 6.80517 6.78207 6.8195C6.78207 6.86605 6.78764 6.97168 6.79692 7.11312C6.83033 7.65918 6.89529 8.71728 6.72268 9.91683C6.68927 10.1514 6.6837 10.3787 6.70597 10.5972C6.76722 11.2059 7.03079 11.752 7.42242 12.1655C7.80848 12.5737 8.3189 12.8512 8.87943 12.9264C8.98337 12.9372 9.08731 12.9443 9.19125 12.9443Z" fill="white"/>
<path d="M8.64372 6.77117C8.62888 6.8768 8.84604 7.16147 9.12816 7.19907C9.41028 7.23666 9.65343 7.01466 9.66827 6.90903C9.68312 6.80339 9.46596 6.68523 9.18384 6.64763C8.90172 6.61004 8.65857 6.66554 8.64372 6.77117Z" fill="white"/>
<path d="M8.75513 6.78548C8.75142 6.80876 8.79039 6.86963 8.85536 6.93587C8.92774 7.00928 9.02983 7.07552 9.14305 7.09163H9.1449C9.25627 7.10596 9.36021 7.07015 9.43816 7.01823C9.51055 6.97168 9.55509 6.92155 9.56066 6.8929C9.56066 6.88753 9.53282 6.87142 9.48642 6.84636C9.41032 6.80518 9.29896 6.77116 9.17089 6.75326H9.16718C9.04096 6.73714 8.92403 6.74072 8.84051 6.76042C8.78854 6.77295 8.75513 6.7819 8.75513 6.78548ZM8.69388 7.08447C8.58437 6.97347 8.52312 6.84098 8.53426 6.75863V6.75505C8.5491 6.653 8.64376 6.58317 8.78854 6.54915C8.89804 6.52409 9.04282 6.51872 9.19687 6.53841C9.19873 6.53841 9.20058 6.53841 9.20244 6.53841C9.35835 6.5599 9.49756 6.60287 9.59593 6.65658C9.72585 6.7264 9.79824 6.82129 9.78339 6.92155C9.77225 7.00033 9.68873 7.11491 9.56437 7.19548C9.44744 7.27246 9.28782 7.32796 9.11521 7.30469H9.11335C8.94259 7.2832 8.79596 7.18831 8.69388 7.08447Z" fill="white"/>
<path d="M17.2633 6.55452C17.2782 6.66016 17.061 6.94482 16.7789 6.98242C16.4949 7.02002 16.2536 6.79801 16.2388 6.69238C16.2239 6.58675 16.4411 6.46859 16.725 6.43099C17.0053 6.39339 17.2466 6.44889 17.2633 6.55452Z" fill="white"/>
<path d="M17.3172 6.54737C17.3264 6.6154 17.2708 6.73178 17.1724 6.83204C17.0777 6.92872 16.9404 7.01645 16.7845 7.03614H16.7826C16.6267 7.05583 16.4819 7.0057 16.3743 6.93588C16.2629 6.86426 16.1905 6.76579 16.1794 6.69955C16.1683 6.62256 16.2295 6.54737 16.339 6.48829C16.4318 6.43816 16.5636 6.39698 16.7121 6.37728C16.8606 6.35759 16.9998 6.36296 17.1037 6.38624C17.2262 6.41309 17.306 6.46859 17.3172 6.54737ZM17.0907 6.75684C17.1668 6.67986 17.2114 6.60108 17.2058 6.56169C17.2021 6.53305 17.1538 6.50798 17.0796 6.49008C16.9886 6.46859 16.8643 6.46501 16.7288 6.48292C16.5952 6.50082 16.4764 6.53842 16.3947 6.58139C16.3279 6.61719 16.2889 6.65479 16.2926 6.68344C16.2982 6.72283 16.3539 6.78907 16.4392 6.84457C16.5265 6.90186 16.6453 6.94304 16.7715 6.92693H16.7733C16.8977 6.91081 17.0109 6.83741 17.0907 6.75684Z" fill="white"/>
<path d="M17.9389 5.8348C17.9296 5.65576 18.0726 5.50358 18.2582 5.49463C18.4438 5.48568 18.6015 5.62354 18.6108 5.80257C18.6387 6.30387 18.5756 6.70133 18.5087 7.11849C18.4586 7.43001 18.4067 7.75586 18.3955 8.1193C18.3844 8.46484 18.4308 8.84798 18.4809 9.24186C18.6108 10.2785 18.7482 11.3885 17.9501 12.5361C17.8461 12.6847 17.6382 12.7241 17.4842 12.6257C17.3301 12.5254 17.2893 12.3249 17.3914 12.1763C18.0484 11.2292 17.9259 10.2427 17.8109 9.31885C17.7589 8.90706 17.7088 8.50602 17.7236 8.1014C17.7366 7.68245 17.7904 7.34766 17.8424 7.0236C17.9055 6.6333 17.9631 6.26449 17.9389 5.8348Z" fill="white"/>
</g>
<defs>
<clipPath id="clip0_341_3">
<rect width="22" height="22" fill="white"/>
</clipPath>
</defs>
</svg>
