<svg width="22" height="22" viewBox="0 0 22 22" fill="none" xmlns="http://www.w3.org/2000/svg">
<path d="M7.99655 10.2413H13.0861C14.5015 10.2413 15.6309 9.08014 15.6309 7.6679V2.83877C15.6309 1.46449 14.4681 0.436084 13.0861 0.203866C11.3801 -0.0757593 9.52629 -0.0615469 7.99655 0.208539C5.84251 0.5877 5.45179 1.37917 5.45179 2.84354V3.8771H10.546V5.41683H3.54082C2.05879 5.41683 0.762457 6.30301 0.357444 7.98544C-0.109581 9.91425 -0.12862 11.118 0.357444 13.1321C0.719631 14.6297 1.58217 15.7007 3.06425 15.7007H4.81322V13.3881C4.81317 11.7152 6.26666 10.2413 7.99655 10.2413Z" fill="#347AB4"/>
<path d="M21.6086 8.75355C21.2416 7.28918 20.5459 6.18494 19.0639 6.18494H17.153V8.43129C17.153 10.1753 15.6661 11.6443 13.9696 11.6443H8.88001C7.48843 11.6443 6.33521 12.8292 6.33521 14.2177V19.0422C6.33521 20.4164 7.5361 21.222 8.88001 21.6155C10.4907 22.0846 12.0394 22.17 13.9695 21.6155C15.2515 21.2457 16.5144 20.5018 16.5144 19.0422V18.0306H11.4296V16.4688H19.0638C20.5459 16.4688 21.0939 15.4404 21.6086 13.9002C22.1423 12.3126 22.1186 10.7866 21.6086 8.75355Z" fill="#FFCA1D"/>
<path d="M7.67733 2.98286C7.16966 2.98286 6.75806 2.56896 6.75806 2.05957C6.76261 1.54561 7.16966 1.13171 7.67733 1.13171C8.18045 1.13171 8.59665 1.55014 8.59665 2.05957C8.5966 2.56896 8.185 2.98286 7.67733 2.98286Z" fill="white"/>
<path d="M13.8539 20.832C13.3462 20.832 12.9346 20.4181 12.9346 19.9087C12.9392 19.3947 13.3462 18.9808 13.8539 18.9808C14.357 18.9808 14.7732 19.3993 14.7732 19.9087C14.7732 20.4181 14.3616 20.832 13.8539 20.832Z" fill="white"/>
</svg>
